HIERARCHY
ROOT Hips
{
  OFFSET 53.0411 96.1731 10.2046
  CHANNELS 6 Xposition Yposition Zposition Zrotation Xrotation Yrotation
  JOINT spine
  {
    OFFSET 0 8.13249 0.467659
    CHANNELS 3 Zrotation Xrotation Yrotation
    JOINT spine1
    {
      OFFSET 0 10.3498 0
      CHANNELS 3 Zrotation Xrotation Yrotation
      JOINT spine2
      {
        OFFSET 0 9.91699 0
        CHANNELS 3 Zrotation Xrotation Yrotation
        JOINT Neck
        {
          OFFSET 0 25.461 1.2139
          CHANNELS 3 Zrotation Xrotation Yrotation
          JOINT Head
          {
            OFFSET 0 7.69245 0
            CHANNELS 3 Zrotation Xrotation Yrotation
            End Site
            {
              OFFSET 0 18.62 -6.14063
            }
          }
        }
        JOINT RightShoulder
        {
          OFFSET -4.17575 10.7096 -0.581445
          CHANNELS 3 Zrotation Xrotation Yrotation
          JOINT RightArm
          {
            OFFSET 0 14.0466 0
            CHANNELS 3 Zrotation Xrotation Yrotation
            JOINT RightArmRoll
            {
              OFFSET 0 7.09098 0
              CHANNELS 3 Zrotation Xrotation Yrotation
              JOINT RightForeArm
              {
                OFFSET 0 20.6535 0
                CHANNELS 3 Zrotation Xrotation Yrotation
                JOINT RightForeArmRoll
                {
                  OFFSET 0 7.95718 0
                  CHANNELS 3 Zrotation Xrotation Yrotation
                  JOINT RightHand
                  {
                    OFFSET 0 15.9683 0
                    CHANNELS 3 Zrotation Xrotation Yrotation
                    End Site
                    {
                      OFFSET 0 0 0
                    }
                  }
                }
              }
            }
          }
        }
        JOINT LeftShoulder
        {
          OFFSET 4.17575 10.7096 -0.581445
          CHANNELS 3 Zrotation Xrotation Yrotation
          JOINT LeftArm
          {
            OFFSET 0 14.0466 0
            CHANNELS 3 Zrotation Xrotation Yrotation
            JOINT LeftArmRoll
            {
              OFFSET 0 7.09098 0
              CHANNELS 3 Zrotation Xrotation Yrotation
              JOINT LeftForeArm
              {
                OFFSET 0 20.6535 0
                CHANNELS 3 Zrotation Xrotation Yrotation
                JOINT LeftForeArmRoll
                {
                  OFFSET 0 7.95718 0
                  CHANNELS 3 Zrotation Xrotation Yrotation
                  JOINT LeftHand
                  {
                    OFFSET 0 15.9683 0
                    CHANNELS 3 Zrotation Xrotation Yrotation
                    End Site
                    {
                      OFFSET 0 0 0
                    }
                  }
                }
              }
            }
          }
        }
      }
    }
  }
  JOINT RightUpLeg
  {
    OFFSET -7.20834 -1.32182 -1.10884
    CHANNELS 3 Zrotation Xrotation Yrotation
    JOINT RightUpLegRoll
    {
      OFFSET 0 18.7238 0
      CHANNELS 3 Zrotation Xrotation Yrotation
      JOINT RightLeg
      {
        OFFSET 0 -23.1866 0
        CHANNELS 3 Zrotation Xrotation Yrotation
        JOINT RightLegRoll
        {
          OFFSET 0 23.2624 0
          CHANNELS 3 Zrotation Xrotation Yrotation
          JOINT RightFoot
          {
            OFFSET 0 19.3621 0
            CHANNELS 3 Zrotation Xrotation Yrotation
            JOINT RightToeBase
            {
              OFFSET 0 16.1857 0
              CHANNELS 3 Zrotation Xrotation Yrotation
              End Site
              {
                OFFSET 0.00686052 7.83862 -0.903522
              }
            }
          }
        }
      }
    }
  }
  JOINT LeftUpLeg
  {
    OFFSET 7.20834 -1.32182 -1.10884
    CHANNELS 3 Zrotation Xrotation Yrotation
    JOINT LeftUpLegRoll
    {
      OFFSET 0 18.7239 0
      CHANNELS 3 Zrotation Xrotation Yrotation
      JOINT LeftLeg
      {
        OFFSET 0 23.1865 0
        CHANNELS 3 Zrotation Xrotation Yrotation
        JOINT LeftLegRoll
        {
          OFFSET 0 23.4775 0
          CHANNELS 3 Zrotation Xrotation Yrotation
          JOINT LeftFoot
          {
            OFFSET 0 19.147 0
            CHANNELS 3 Zrotation Xrotation Yrotation
            JOINT LeftToeBase
            {
              OFFSET 0 16.1857 0
              CHANNELS 3 Zrotation Xrotation Yrotation
              End Site
              {
                OFFSET -0.0307459 7.83862 -0.903522
              }
            }
          }
        }
      }
    }
  }
}
MOTION
Frames: 13
Frame Time: 0.00208333
53.1664 96.141 8.86054 -0.989017 -3.42922 0.0286389 0.442645 -1.05938 0.0799722 0.879057 1.89347 0.105311 0.878452 3.53843 0.0906805 -4.95791 10.0596 -3.36021 5.66591 0.931465 -4.07186 58.3231 -8.73635 -5.41756 112.961 19.1485 17.4356 -1.49389e-006 -9.42254e-006 -3.86711e-006 7.65723 0.886428 -0.67777 -6.68363e-006 3.17603e-006 -3 8.02919 -4.95144 0.697662 -64.5906 -7.45195 4.81967 -107.277 18.216 -6.83553 -1.07811e-005 2.88116e-006 2.97338e-006 -9.89005 0.0783469 0.856294 6.1478e-006 1.36873e-006 3.01637 -8.02898 -4.95146 -0.697668 173.256 1.24626 3.76082 180 7.01559e-015 178.975 178.163 9.01933 179.711 4.20411e-006 6.49167e-006 -0.0443071 -16.2668 67.2751 18.9695 8.13649 25.2327 -3.48773 -172.967 1.50578 -1.98842 4.54188e-006 -4.6773e-006 -0.961896 -1.3489 -13.2523 0.442303 5.314e-006 -2.06126e-007 -0.176444 19.5777 71.2935 -22.531 -8.1366 25.2342 3.48569 
53.1605 96.1416 8.86221 -0.987258 -3.43161 0.0288569 0.442653 -1.05832 0.0799641 0.879572 1.89557 0.105469 0.878973 3.54052 0.0908257 -4.95854 10.0598 -3.35798 5.65811 0.921124 -4.06995 58.3251 -8.73906 -5.41932 112.962 19.1498 17.4322 -1.49389e-006 -9.42254e-006 -3.86711e-006 7.65876 0.890051 -0.678369 -6.68363e-006 3.17603e-006 -3 8.02919 -4.95144 0.697662 -64.587 -7.44533 4.81587 -107.279 18.209 -6.83336 -1.07811e-005 2.88116e-006 2.97338e-006 -9.89177 0.0783465 0.855726 6.1478e-006 1.36873e-006 3.01639 -8.02898 -4.95146 -0.697668 173.254 1.24511 3.76074 180 7.01559e-015 178.975 178.164 9.02114 179.711 4.20411e-006 6.49167e-006 -0.0443097 -16.2631 67.2744 18.9687 8.13649 25.2327 -3.48773 -172.968 1.50309 -1.98851 4.54188e-006 -4.6773e-006 -0.961896 -1.35028 -13.2513 0.442016 5.314e-006 -2.06126e-007 -0.176444 19.5754 71.2928 -22.5295 -8.1366 25.2342 3.48569 
53.1575 96.1378 8.86288 -0.985528 -3.43405 0.0290928 0.442666 -1.05726 0.0799559 0.880112 1.8977 0.105633 0.879521 3.54266 0.0909764 -4.95904 10.0598 -3.35578 5.6505 0.911241 -4.06803 58.3273 -8.74188 -5.42114 112.964 19.1514 17.4284 -1.49389e-006 -9.42254e-006 -3.86711e-006 7.66039 0.893469 -0.678953 -6.68363e-006 3.17603e-006 -3 8.02919 -4.95144 0.697662 -64.583 -7.4387 4.81204 -107.281 18.2023 -6.83127 -1.07811e-005 2.88116e-006 2.97338e-006 -9.89339 0.0783461 0.855279 6.1478e-006 1.36873e-006 3.01644 -8.02898 -4.95146 -0.697668 173.253 1.24388 3.76063 180 7.01559e-015 178.975 178.165 9.02288 179.71 4.20411e-006 6.49167e-006 -0.0443134 -16.2593 67.2737 18.9677 8.13649 25.2327 -3.48773 -172.97 1.50035 -1.98867 4.54188e-006 -4.6773e-006 -0.961896 -1.3517 -13.2502 0.441721 5.314e-006 -2.06126e-007 -0.176444 19.5729 71.2921 -22.5279 -8.1366 25.2342 3.48569 
53.1657 96.1398 8.86133 -0.983818 -3.43654 0.0293412 0.442681 -1.05618 0.0799478 0.88067 1.89985 0.1058 0.880087 3.54481 0.0911308 -4.95944 10.0597 -3.35361 5.64303 0.901679 -4.06611 58.3297 -8.74476 -5.42302 112.965 19.1533 17.4245 -1.49389e-006 -9.42254e-006 -3.86711e-006 7.66211 0.896743 -0.679526 -6.68363e-006 3.17603e-006 -3 8.02919 -4.95144 0.697662 -64.5789 -7.43204 4.8082 -107.284 18.1956 -6.82923 -1.07811e-005 2.88116e-006 2.97338e-006 -9.89495 0.0783457 0.854917 6.1478e-006 1.36873e-006 3.01649 -8.02898 -4.95146 -0.697668 173.251 1.24258 3.7605 180 7.01559e-015 178.975 178.166 9.02458 179.71 4.20411e-006 6.49167e-006 -0.0443181 -16.2555 67.2729 18.9668 8.13649 25.2327 -3.48773 -172.971 1.49757 -1.98887 4.54188e-006 -4.6773e-006 -0.961896 -1.35316 -13.2491 0.44142 5.314e-006 -2.06126e-007 -0.176444 19.5704 71.2914 -22.5263 -8.1366 25.2342 3.48569 
53.1654 96.1412 8.86649 -0.98212 -3.43905 0.0295968 0.442699 -1.05511 0.0799396 0.881238 1.90202 0.105971 0.880663 3.54698 0.0912874 -4.9598 10.0595 -3.35144 5.63563 0.892301 -4.0642 58.3322 -8.74769 -5.42493 112.967 19.1553 17.4204 -1.49389e-006 -9.42254e-006 -3.86711e-006 7.66387 0.899935 -0.680092 -6.68363e-006 3.17603e-006 -3 8.02919 -4.95144 0.697662 -64.5746 -7.42538 4.80435 -107.286 18.189 -6.82723 -1.07811e-005 2.88116e-006 2.97338e-006 -9.89648 0.0783453 0.854604 6.1478e-006 1.36873e-006 3.01655 -8.02898 -4.95146 -0.697668 173.25 1.24124 3.76036 180 7.01559e-015 178.975 178.167 9.02621 179.71 4.20411e-006 6.49167e-006 -0.0443232 -16.2517 67.2721 18.9658 8.13649 25.2327 -3.48773 -172.972 1.49477 -1.9891 4.54188e-006 -4.6773e-006 -0.961896 -1.35463 -13.248 0.441117 5.314e-006 -2.06126e-007 -0.176444 19.5678 71.2906 -22.5247 -8.1366 25.2342 3.48569 
53.1674 96.1409 8.8647 -0.980424 -3.44156 0.0298542 0.442716 -1.05403 0.0799314 0.88181 1.90419 0.106141 0.881242 3.54915 0.0914446 -4.96014 10.0593 -3.34929 5.62825 0.882969 -4.06228 58.3348 -8.75064 -5.42684 112.968 19.1574 17.4163 -1.49389e-006 -9.42254e-006 -3.86711e-006 7.66564 0.903106 -0.680657 -6.68363e-006 3.17603e-006 -3 8.02919 -4.95144 0.697662 -64.5703 -7.41872 4.8005 -107.289 18.1824 -6.82523 -1.07811e-005 2.88116e-006 2.97338e-006 -9.898 0.078345 0.854303 6.1478e-006 1.36873e-006 3.0166 -8.02898 -4.95146 -0.697668 173.248 1.2399 3.76021 180 7.01559e-015 178.975 178.168 9.02787 179.71 4.2041e-006 6.49167e-006 -0.0443285 -16.2478 67.2714 18.9648 8.13649 25.2327 -3.48773 -172.974 1.49197 -1.98934 4.54188e-006 -4.6773e-006 -0.961896 -1.35611 -13.247 0.440812 5.314e-006 -2.06126e-007 -0.176444 19.5652 71.2899 -22.523 -8.1366 25.2342 3.48569 
53.1701 96.1364 8.85371 -0.978723 -3.44406 0.030108 0.442733 -1.05296 0.0799232 0.882375 1.90636 0.106311 0.881816 3.55132 0.0916007 -4.96051 10.0592 -3.34712 5.62084 0.873545 -4.06036 58.3373 -8.75356 -5.42874 112.97 19.1594 17.4122 -1.49389e-006 -9.42254e-006 -3.86711e-006 7.66739 0.906318 -0.681225 -6.68363e-006 3.17603e-006 -3 8.02919 -4.95144 0.697662 -64.5661 -7.41206 4.79666 -107.292 18.1758 -6.82322 -1.07811e-005 2.88116e-006 2.97338e-006 -9.89954 0.0783446 0.853978 6.1478e-006 1.36873e-006 3.01666 -8.02898 -4.95146 -0.697668 173.246 1.23858 3.76007 180 7.01559e-015 178.975 178.169 9.02953 179.71 4.20411e-006 6.49167e-006 -0.0443335 -16.244 67.2706 18.9638 8.13649 25.2327 -3.48773 -172.975 1.48917 -1.98957 4.54188e-006 -4.6773e-006 -0.961896 -1.35758 -13.2459 0.440509 5.314e-006 -2.06126e-007 -0.176444 19.5626 71.2892 -22.5214 -8.1366 25.2342 3.48569 
53.1702 96.1373 8.85585 -0.977007 -3.44653 0.0303528 0.442748 -1.05189 0.0799151 0.882928 1.90851 0.106477 0.882377 3.55347 0.0917541 -4.96095 10.0591 -3.34494 5.61333 0.863892 -4.05845 58.3396 -8.75643 -5.4306 112.971 19.1612 17.4083 -1.49389e-006 -9.42254e-006 -3.86711e-006 7.66908 0.909633 -0.681801 -6.68363e-006 3.17603e-006 -3 8.02919 -4.95144 0.697662 -64.562 -7.40541 4.79282 -107.294 18.1691 -6.82117 -1.07811e-005 2.88116e-006 2.97338e-006 -9.90112 0.0783442 0.853592 6.1478e-006 1.36873e-006 3.01671 -8.02898 -4.95146 -0.697668 173.245 1.2373 3.75995 180 7.01559e-015 178.975 178.169 9.03124 179.709 4.20411e-006 6.49167e-006 -0.0443379 -16.2402 67.2698 18.9628 8.13649 25.2327 -3.48773 -172.977 1.4864 -1.98976 4.54188e-006 -4.6773e-006 -0.961896 -1.35903 -13.2448 0.44021 5.314e-006 -2.06126e-007 -0.176444 19.5601 71.2884 -22.5198 -8.1366 25.2342 3.48569 
53.1734 96.1381 8.86367 -0.975268 -3.44896 0.0305833 0.442759 -1.05083 0.079907 0.883461 1.91063 0.106639 0.882916 3.55559 0.0919031 -4.96148 10.0591 -3.34273 5.60567 0.853871 -4.05653 58.3418 -8.75921 -5.43241 112.972 19.1627 17.4047 -1.49389e-006 -9.42254e-006 -3.86711e-006 7.67068 0.913113 -0.682389 -6.68363e-006 3.17603e-006 -3 8.02919 -4.95144 0.697662 -64.5582 -7.39878 4.789 -107.296 18.1622 -6.81905 -1.07811e-005 2.88116e-006 2.97338e-006 -9.90277 0.0783438 0.853109 6.1478e-006 1.36873e-006 3.01675 -8.02898 -4.95146 -0.697668 173.243 1.23609 3.75985 180 7.01559e-015 178.975 178.17 9.033 179.709 4.20411e-006 6.49167e-006 -0.0443413 -16.2364 67.2691 18.9619 8.13649 25.2327 -3.48773 -172.978 1.48368 -1.98989 4.54188e-006 -4.6773e-006 -0.961896 -1.36044 -13.2437 0.439917 5.314e-006 -2.06126e-007 -0.176444 19.5577 71.2877 -22.5182 -8.1366 25.2342 3.48569 
53.1673 96.1363 8.86091 -0.973498 -3.45132 0.0307941 0.442766 -1.04977 0.0798989 0.883965 1.91271 0.106795 0.883427 3.55767 0.0920461 -4.96216 10.0593 -3.34049 5.59779 0.843345 -4.05462 58.3437 -8.76188 -5.43413 112.974 19.1638 17.4014 -1.49389e-006 -9.42254e-006 -3.86711e-006 7.67217 0.916819 -0.682995 -6.68363e-006 3.17603e-006 -3 8.02919 -4.95144 0.697662 -64.5546 -7.39217 4.78521 -107.298 18.1552 -6.81685 -1.07811e-005 2.88116e-006 2.97338e-006 -9.90452 0.0783434 0.852492 6.1478e-006 1.36873e-006 3.01677 -8.02898 -4.95146 -0.697668 173.241 1.23497 3.75978 180 7.01559e-015 178.975 178.171 9.03481 179.709 4.20411e-006 6.49167e-006 -0.0443433 -16.2327 67.2684 18.9611 8.13649 25.2327 -3.48773 -172.979 1.48101 -1.98995 4.54188e-006 -4.6773e-006 -0.961896 -1.3618 -13.2427 0.439633 5.314e-006 -2.06126e-007 -0.176444 19.5553 71.287 -22.5168 -8.1366 25.2342 3.48569 
53.1651 96.1323 8.85472 -0.971687 -3.4536 0.0309798 0.442767 -1.04873 0.0798908 0.884432 1.91475 0.106942 0.883902 3.55971 0.0921816 -4.96303 10.0598 -3.3382 5.58964 0.832177 -4.05271 58.3453 -8.7644 -5.43576 112.975 19.1644 17.3986 -1.49389e-006 -9.42254e-006 -3.86711e-006 7.6735 0.920812 -0.683623 -6.68363e-006 3.17603e-006 -3 8.02919 -4.95144 0.697662 -64.5515 -7.38559 4.78145 -107.299 18.148 -6.81454 -1.07811e-005 2.88116e-006 2.97338e-006 -9.90639 0.078343 0.851704 6.1478e-006 1.36873e-006 3.01677 -8.02898 -4.95146 -0.697668 173.24 1.23398 3.75975 180 7.01559e-015 178.975 178.172 9.03675 179.709 4.20411e-006 6.49167e-006 -0.0443437 -16.229 67.2677 18.9603 8.13649 25.2327 -3.48773 -172.981 1.47842 -1.98992 4.54188e-006 -4.6773e-006 -0.961896 -1.3631 -13.2416 0.43936 5.314e-006 -2.06126e-007 -0.176444 19.5532 71.2864 -22.5155 -8.1366 25.2342 3.48569 
53.1725 96.1331 8.85523 -0.969827 -3.45578 0.0311351 0.44276 -1.0477 0.0798828 0.884856 1.91673 0.107078 0.884332 3.56168 0.0923079 -4.96412 10.0605 -3.33585 5.58117 0.820229 -4.0508 58.3465 -8.76674 -5.43727 112.977 19.1644 17.3964 -1.49389e-006 -9.42254e-006 -3.86711e-006 7.67464 0.925155 -0.684277 -6.68363e-006 3.17603e-006 -3 8.02919 -4.95144 0.697662 -64.549 -7.37904 4.77772 -107.3 18.1404 -6.8121 -1.07811e-005 2.88116e-006 2.97338e-006 -9.90841 0.0783425 0.850709 6.1478e-006 1.36873e-006 3.01675 -8.02898 -4.95146 -0.697668 173.238 1.23314 3.75977 180 7.01559e-015 178.975 178.173 9.03879 179.708 4.20411e-006 6.49167e-006 -0.0443419 -16.2254 67.2671 18.9596 8.13649 25.2327 -3.48773 -172.983 1.47592 -1.98977 4.54188e-006 -4.6773e-006 -0.961896 -1.36432 -13.2406 0.4391 5.314e-006 -2.06126e-007 -0.176444 19.5512 71.2857 -22.5143 -8.1366 25.2342 3.48569 
53.1787 96.136 8.86105 -0.967909 -3.45784 0.0312545 0.442746 -1.04669 0.0798749 0.885228 1.91864 0.107203 0.88471 3.56359 0.0924233 -4.96547 10.0616 -3.33344 5.57231 0.807363 -4.04889 58.3472 -8.76887 -5.43863 112.978 19.1636 17.3947 -1.49389e-006 -9.42254e-006 -3.86711e-006 7.67556 0.929909 -0.684962 -6.68363e-006 3.17603e-006 -3 8.02919 -4.95144 0.697662 -64.547 -7.37254 4.77404 -107.299 18.1326 -6.8095 -1.07811e-005 2.88116e-006 2.97338e-006 -9.9106 0.078342 0.849471 6.1478e-006 1.36873e-006 3.01671 -8.02898 -4.95146 -0.697668 173.236 1.23247 3.75984 180 7.01559e-015 178.975 178.174 9.04096 179.708 4.20411e-006 6.49167e-006 -0.0443376 -16.2219 67.2665 18.959 8.13649 25.2327 -3.48773 -172.985 1.47353 -1.98948 4.54188e-006 -4.6773e-006 -0.961896 -1.36545 -13.2396 0.438856 5.314e-006 -2.06126e-007 -0.176444 19.5493 71.2851 -22.5133 -8.1366 25.2342 3.48569 
